<svg width="1439" height="320" viewBox="0 0 1439 320" fill="none" xmlns="http://www.w3.org/2000/svg">
<g style="mix-blend-mode:difference" opacity="0.1" filter="url(#filter0_f_10_368)">
<circle opacity="0.83" cx="162.785" cy="24.9924" r="24.08" transform="rotate(-138 162.785 24.9924)" fill="#790475"/>
<circle opacity="0.81" cx="494.259" cy="38.2785" r="19.88" transform="rotate(169 494.259 38.2785)" fill="#790475"/>
<circle opacity="0.98" cx="1273.62" cy="62.8124" r="22.12" transform="rotate(-38 1273.62 62.8124)" fill="#790475"/>
<circle opacity="0.72" cx="11.3883" cy="76.6116" r="24.92" transform="rotate(-174 11.3883 76.6116)" fill="#790475"/>
<circle opacity="0.82" cx="878.399" cy="91.8325" r="22.96" transform="rotate(-76 878.399 91.8325)" fill="#790475"/>
<circle opacity="0.8" cx="1362.39" cy="96.478" r="17.36" transform="rotate(62 1362.39 96.478)" fill="#790475"/>
<circle opacity="0.73" cx="484.767" cy="116.2" r="27.16" transform="rotate(-141 484.767 116.2)" fill="#790475"/>
<circle opacity="0.79" cx="337.84" cy="31.2726" r="29.4" transform="rotate(158 337.84 31.2726)" fill="#790475"/>
<circle opacity="0.79" cx="213.84" cy="178.273" r="29.4" transform="rotate(158 213.84 178.273)" fill="#790475"/>
<circle opacity="0.79" cx="402.84" cy="97.2727" r="10.5353" transform="rotate(158 402.84 97.2727)" fill="#790475"/>
<circle opacity="0.79" cx="70.8396" cy="162.273" r="29.4" transform="rotate(158 70.8396 162.273)" fill="#790475"/>
<circle opacity="0.71" cx="1113.34" cy="145.777" r="39.3026" transform="rotate(69 1113.34 145.777)" fill="#790475"/>
<circle opacity="0.95" cx="381.527" cy="247.422" r="23.8" transform="rotate(124 381.527 247.422)" fill="#790475"/>
<circle opacity="0.97" cx="520.923" cy="264.501" r="20.72" transform="rotate(-24 520.923 264.501)" fill="#790475"/>
<circle opacity="0.99" cx="1300.74" cy="164.981" r="30.52" transform="rotate(-113 1300.74 164.981)" fill="#790475"/>
<circle opacity="0.98" cx="296.114" cy="320.599" r="19.6" transform="rotate(3 296.114 320.599)" fill="#790475"/>
<circle opacity="0.75" cx="766.933" cy="292.405" r="21.56" transform="rotate(19 766.933 292.405)" fill="#790475"/>
<circle opacity="0.74" cx="1419.54" cy="235.493" r="31.36" transform="rotate(-85 1419.54 235.493)" fill="#790475"/>
</g>
<g style="mix-blend-mode:difference" opacity="0.1" filter="url(#filter1_f_10_368)">
<path d="M719.067 115L729.053 122.255L725.239 133.995H712.895L709.081 122.255L719.067 115Z" fill="#790475"/>
<rect x="649.567" y="107" width="18" height="18" fill="#790475"/>
<path opacity="0.73" d="M232.618 58.0222L240.348 69.4834L231.837 80.3774L218.846 75.6491L219.329 61.8328L232.618 58.0222Z" fill="#790475"/>
<path opacity="0.94" d="M610.801 62.2837L601.489 51.5706L608.8 39.4031L622.631 42.5963L623.868 56.7373L610.801 62.2837Z" fill="#790475"/>
<path opacity="0.81" d="M907.339 46.3921L896.389 39.0065L900.03 26.3106L913.229 25.8497L917.746 38.2607L907.339 46.3921Z" fill="#790475"/>
<rect opacity="0.71" x="1351.57" y="41" width="15.48" height="15.48" transform="rotate(49 1351.57 41)" fill="#790475"/>
<path opacity="0.9" d="M262.679 140.943L277.228 134.768L275.301 150.455L262.679 140.943Z" fill="#790475"/>
<path opacity="0.82" d="M496.671 189.062L489.201 195.33L480.931 190.163L483.29 180.701L493.018 180.021L496.671 189.062Z" fill="#790475"/>
<rect opacity="0.72" x="1002.57" y="129" width="12.96" height="12.96" transform="rotate(62 1002.57 129)" fill="#790475"/>
<path d="M1363.95 102.734L1345.82 111.973L1346.88 91.6496L1363.95 102.734Z" fill="#790475"/>
<path opacity="0.75" d="M186.218 226.006L200.907 216.828L201.511 234.138L186.218 226.006Z" fill="#790475"/>
<path opacity="0.74" d="M663.25 205.59L649.92 222.651L641.81 202.577L663.25 205.59Z" fill="#790475"/>
<path opacity="0.95" d="M1048.12 235.629L1055.28 260.603L1030.07 254.318L1048.12 235.629Z" fill="#790475"/>
<path opacity="0.84" d="M1173.85 248.262L1162.96 253.81L1154.32 245.169L1159.87 234.281L1171.94 236.192L1173.85 248.262Z" fill="#790475"/>
<path opacity="0.88" d="M89.8264 277.604L74.9494 274.712L84.8923 263.274L89.8264 277.604Z" fill="#790475"/>
<path opacity="0.74" d="M365.264 291.573L375.215 269.223L389.596 289.015L365.264 291.573Z" fill="#790475"/>
<rect opacity="0.84" x="808.567" y="264" width="18.18" height="18.18" transform="rotate(-25 808.567 264)" fill="#790475"/>
<path d="M1146.43 239.031L1156.54 228.927L1160.23 242.73L1146.43 239.031Z" fill="#790475"/>
</g>
<defs>
<filter id="filter0_f_10_368" x="-24.5337" y="-10.0878" width="1486.44" height="361.287" filterUnits="userSpaceOnUse" color-interpolation-filters="sRGB">
<feFlood flood-opacity="0" result="BackgroundImageFix"/>
<feBlend mode="normal" in="SourceGraphic" in2="BackgroundImageFix" result="shape"/>
<feGaussianBlur stdDeviation="5.5" result="effect1_foregroundBlur_10_368"/>
</filter>
<filter id="filter1_f_10_368" x="67.9495" y="18.8497" width="1303" height="279.723" filterUnits="userSpaceOnUse" color-interpolation-filters="sRGB">
<feFlood flood-opacity="0" result="BackgroundImageFix"/>
<feBlend mode="normal" in="SourceGraphic" in2="BackgroundImageFix" result="shape"/>
<feGaussianBlur stdDeviation="3.5" result="effect1_foregroundBlur_10_368"/>
</filter>
</defs>
</svg>
