<svg width="18" height="18" viewBox="0 0 18 18" fill="none" xmlns="http://www.w3.org/2000/svg">
<path d="M4.83527 1.50132L4.85661 1.50274C5.2468 1.53633 5.58653 1.73145 5.89549 2.03487L5.991 2.13149C6.58382 2.75444 7.6515 4.18534 7.8257 4.69251L7.84445 4.75894C7.95065 5.27155 7.83762 5.60445 7.50045 6.19332L7.41895 6.33806C7.26426 6.62188 7.24062 6.73895 7.28843 6.87298C8.02385 8.68211 9.2788 9.94336 11.0585 10.674C11.227 10.7354 11.3542 10.7004 11.7099 10.4952L11.8962 10.3893C12.3965 10.1135 12.7136 10.0262 13.1813 10.1237C13.5797 10.2074 14.8675 11.1544 15.6114 11.8196L15.8168 12.0095L15.8906 12.0829C16.193 12.3941 16.3877 12.736 16.4216 13.1547C16.4574 14.1727 15.2217 15.6059 14.4682 16.0366C13.6112 16.6537 12.5235 16.6433 11.3031 16.0723C8.11352 14.7382 3.23449 9.86533 1.93426 6.66318L1.85647 6.48415C1.36303 5.29859 1.37389 4.27364 1.93894 3.50183C2.45392 2.64291 3.84764 1.45537 4.83527 1.50132ZM4.77373 2.59801L4.70921 2.60141C4.20237 2.66922 3.18443 3.55014 2.84666 4.10942L2.78822 4.19688C2.49679 4.6744 2.53046 5.33072 2.93633 6.22845L3.01396 6.41109C4.32381 9.36602 8.85905 13.8614 11.7429 15.0681L11.9018 15.1392C12.7366 15.4949 13.3679 15.4792 13.8791 15.1143L13.9169 15.0899C14.0751 14.9794 14.44 14.6461 14.7211 14.3201C15.1159 13.8623 15.3394 13.4427 15.3322 13.2194C15.3243 13.1239 15.251 12.9951 15.1169 12.857L15.0561 12.7966C14.5361 12.2962 13.1174 11.2314 12.9588 11.1981C12.7966 11.1643 12.6633 11.21 12.2993 11.4205L12.1154 11.5243C11.5789 11.8151 11.2002 11.8932 10.666 11.6978C8.59479 10.8481 7.12432 9.37022 6.26997 7.26729C6.06757 6.70494 6.17659 6.30728 6.52879 5.69057L6.61247 5.54264C6.77241 5.25247 6.80616 5.12934 6.77564 4.98202C6.74335 4.82509 5.76685 3.51267 5.26281 2.95615L5.13287 2.81936L5.06403 2.75641C4.96952 2.6752 4.88558 2.62591 4.8144 2.60582L4.77373 2.59801ZM10.861 4.27575L10.9346 4.28508C12.4409 4.58025 13.6179 5.76363 13.9115 7.278C13.9692 7.57546 13.7761 7.8636 13.4802 7.92158C13.1844 7.97956 12.8978 7.78542 12.8401 7.48796C12.6315 6.4123 11.7957 5.57194 10.7258 5.36228C10.4299 5.3043 10.2368 5.01616 10.2945 4.7187C10.3425 4.47081 10.5496 4.29468 10.7885 4.27641L10.861 4.27575ZM10.8163 1.68283L10.8904 1.68607C13.8378 2.01505 16.1653 4.35228 16.4965 7.3151C16.5302 7.61626 16.3147 7.88784 16.0151 7.92169C15.7156 7.95555 15.4454 7.73885 15.4118 7.43769C15.1375 4.98443 13.2103 3.04923 10.77 2.77684C10.4704 2.7434 10.2545 2.47211 10.2877 2.1709C10.3155 1.9199 10.5075 1.72732 10.7441 1.68945L10.8163 1.68283Z" fill="#3E3E3E"/>
</svg>
