<svg width="16" height="16" viewBox="0 0 16 16" fill="none" xmlns="http://www.w3.org/2000/svg">
<path d="M9.46349 1.03737L9.60023 1.16487L10.1393 1.70393C10.3245 1.88822 10.5673 2.00185 10.8257 2.02737L10.9372 2.03287H11.7082C12.9111 2.03287 13.8947 2.97349 13.9634 4.15915L13.9672 4.29187V5.06212C13.9672 5.32446 14.0577 5.57667 14.2209 5.77721L14.2952 5.85987L14.8343 6.39897C15.683 7.24377 15.7209 8.59474 14.9434 9.48505L14.842 9.59386L14.2957 10.1401C14.112 10.3243 13.9983 10.5674 13.9727 10.8255L13.9672 10.9369V11.7086C13.9672 12.9114 13.0267 13.8944 11.841 13.963L11.7082 13.9669H10.9372C10.6758 13.9669 10.4233 14.0577 10.2226 14.2214L10.14 14.2959L9.60158 14.8335C8.75768 15.6832 7.40574 15.7208 6.51509 14.9431L6.39948 14.8349L5.86165 14.297C5.67535 14.112 5.43203 13.998 5.1744 13.9724L5.06323 13.9669H4.29148C3.08913 13.9669 2.10577 13.0267 2.03707 11.8413L2.03323 11.7086V10.9369C2.03323 10.6759 1.94226 10.4231 1.7787 10.2228L1.70421 10.1403L1.16636 9.60174C0.316929 8.7571 0.279251 7.40513 1.05702 6.51536L1.15848 6.40662L1.70307 5.86128C1.88828 5.67475 2.00215 5.43189 2.02773 5.17363L2.03323 5.06212V4.29187L2.03707 4.15917C2.10323 3.01754 3.0176 2.10289 4.15883 2.0367L4.29148 2.03287H5.06323C5.32459 2.03287 5.57717 1.9422 5.77745 1.77932L5.85996 1.70515L6.39858 1.16577C7.24336 0.317163 8.59518 0.279803 9.46349 1.03737ZM7.28129 1.88195L7.19525 1.96009L6.65431 2.50177C6.26638 2.88696 5.75329 3.11727 5.2116 3.15298L5.06323 3.15787H4.29148C3.70081 3.15787 3.21502 3.61098 3.16287 4.18869L3.15823 4.29187V5.06212C3.15823 5.60899 2.95977 6.13485 2.60181 6.5459L2.50025 6.65509L1.95488 7.20121C1.54102 7.61695 1.51692 8.2737 1.88266 8.71924L1.961 8.8054L2.50045 9.34559C2.88625 9.73231 3.11747 10.2463 3.15333 10.7884L3.15823 10.9369V11.7086C3.15823 12.2996 3.61101 12.7851 4.18837 12.8372L4.29148 12.8419H5.06323C5.60907 12.8419 6.13539 13.0405 6.54653 13.3986L6.65573 13.5001L7.19821 14.0426C7.61687 14.4589 8.27381 14.4832 8.71894 14.1174L8.80501 14.0391L9.34568 13.4992C9.73321 13.1135 10.2465 12.8826 10.7887 12.8468L10.9372 12.8419H11.7082C12.2997 12.8419 12.7855 12.3893 12.8376 11.8118L12.8422 11.7086V10.9369C12.8422 10.3902 13.0408 9.86298 13.3983 9.45373L13.4997 9.34512L14.0454 8.7995C14.4592 8.38328 14.4832 7.72686 14.118 7.28149L14.0397 7.19536L13.4983 6.65395C13.1129 6.26577 12.8828 5.7532 12.8471 5.21073L12.8422 5.06212V4.29187C12.8422 3.70056 12.3892 3.21467 11.8114 3.1625L11.7082 3.15787H10.9372C10.3904 3.15787 9.86382 2.95958 9.45364 2.60185L9.34473 2.50036L8.82878 1.98304L8.79889 1.95526C8.38318 1.54144 7.72628 1.51721 7.28129 1.88195ZM10.3225 9.53182C10.375 9.58432 10.42 9.64432 10.45 9.71182C10.4725 9.77932 10.4875 9.85432 10.4875 9.92932C10.4875 10.0051 10.4725 10.0718 10.45 10.1393C10.42 10.2068 10.375 10.2743 10.3225 10.3268C10.2175 10.4318 10.075 10.4918 9.92503 10.4918C9.77503 10.4918 9.63253 10.4318 9.52753 10.3268C9.47503 10.2743 9.43753 10.2068 9.40753 10.1393C9.37753 10.0718 9.36253 10.0051 9.36253 9.92932C9.36253 9.85432 9.37753 9.77932 9.40753 9.71182C9.43753 9.64432 9.47503 9.58432 9.52753 9.53182C9.73753 9.32182 10.1125 9.32182 10.3225 9.53182ZM10.3253 5.6744C10.525 5.8741 10.5431 6.18659 10.3797 6.4068L10.3253 6.46989L6.47025 10.3249C6.25058 10.5446 5.89443 10.5446 5.67476 10.3249C5.47506 10.1252 5.4569 9.81269 5.62029 9.59248L5.67476 9.5294L9.52976 5.6744C9.74943 5.45473 10.1056 5.45473 10.3253 5.6744ZM6.46746 5.67712C6.57246 5.78137 6.63246 5.92462 6.63246 6.07462C6.63246 6.14962 6.62496 6.21637 6.59496 6.28462C6.56496 6.35212 6.51996 6.41212 6.46746 6.47212C6.41496 6.52462 6.35496 6.56137 6.28746 6.59137C6.21996 6.62137 6.14496 6.63712 6.06996 6.63712C5.99496 6.63712 5.92746 6.62137 5.85996 6.59137C5.79246 6.56137 5.72496 6.52462 5.67246 6.47212C5.61996 6.41212 5.58246 6.35212 5.55246 6.28462C5.52246 6.21637 5.50746 6.14962 5.50746 6.07462C5.50746 5.99887 5.52246 5.92462 5.55246 5.85712C5.58246 5.78962 5.61996 5.72212 5.67246 5.67712C5.88996 5.46637 6.25746 5.46637 6.46746 5.67712Z" fill="#3E3E3E"/>
</svg>
