<svg width="14" height="16" viewBox="0 0 14 16" fill="none" xmlns="http://www.w3.org/2000/svg">
<path d="M9.89704 0.5C12.294 0.5 13.7273 1.94 13.7498 4.349V11.5933C13.7498 14.036 12.3128 15.5 9.89704 15.5H4.10329C3.79429 15.5 3.50104 15.476 3.22504 15.4288L3.06154 15.398C1.28329 15.0283 0.249786 13.6663 0.249786 11.5933V4.40675C0.249786 4.15625 0.264786 3.91625 0.294786 3.68675C0.556536 1.673 1.94029 0.5 4.10329 0.5H9.89704ZM9.89029 1.59275H4.10329C2.26129 1.59275 1.32754 2.54 1.32754 4.40675V11.5933C1.32754 13.46 2.26129 14.4073 4.10329 14.4073H9.89029C11.7315 14.4073 12.6593 13.46 12.6593 11.5933V4.40675C12.6593 2.54 11.7315 1.59275 9.89029 1.59275ZM9.69454 10.6325C9.99004 10.6325 10.2293 10.8755 10.2293 11.1755C10.2293 11.4755 9.99004 11.7185 9.69454 11.7185H4.28629C3.99079 11.7185 3.75079 11.4755 3.75079 11.1755C3.75079 10.8755 3.99079 10.6325 4.28629 10.6325H9.69454ZM9.69454 7.45325C9.90079 7.43075 10.1025 7.52975 10.2128 7.7075C10.323 7.88675 10.323 8.11325 10.2128 8.2925C10.1025 8.47025 9.90079 8.56925 9.69454 8.54675H4.28629C4.01179 8.51525 3.80404 8.2805 3.80404 8C3.80404 7.7195 4.01179 7.484 4.28629 7.45325H9.69454ZM6.35029 4.2815C6.62479 4.31225 6.83254 4.54775 6.83254 4.82825C6.83254 5.108 6.62479 5.3435 6.35029 5.37425H4.29304C4.01779 5.3435 3.81004 5.108 3.81004 4.82825C3.81004 4.54775 4.01779 4.31225 4.29304 4.2815H6.35029Z" fill="#3E3E3E"/>
</svg>
