<svg width="15" height="16" viewBox="0 0 15 16" fill="none" xmlns="http://www.w3.org/2000/svg">
<path d="M10.8051 0.516479C12.5859 0.516479 14.0386 1.91839 14.1202 3.67898L14.1238 3.83523V12.1902C14.1238 13.9747 12.7184 15.4311 10.9541 15.5129L10.7976 15.5165H7.13382C5.3554 15.5165 3.90351 14.1164 3.81964 12.3585L3.81582 12.1977V11.4912C3.81582 11.1806 4.06766 10.9287 4.37832 10.9287C4.66309 10.9287 4.89844 11.1403 4.93568 11.4149L4.94082 11.4912V12.1977C4.94082 13.3657 5.85402 14.321 7.00499 14.3878L7.13382 14.3915H10.7976C11.9697 14.3915 12.9281 13.475 12.9951 12.3196L12.9988 12.1902V3.83523C12.9988 2.66667 12.0858 1.71191 10.934 1.6452L10.8051 1.64148H7.14207C5.96926 1.64148 5.01147 2.55721 4.94455 3.71265L4.94082 3.84198V4.54173C4.94082 4.85239 4.68898 5.10423 4.37832 5.10423C4.09355 5.10423 3.8582 4.89261 3.82095 4.61806L3.81582 4.54173V3.84198C3.81582 2.05742 5.22069 0.601818 6.98545 0.520098L7.14207 0.516479H10.8051ZM7.99735 5.37643L8.06055 5.43077L10.2565 7.61777C10.2747 7.63618 10.2912 7.65495 10.3063 7.67475L10.2565 7.61777C10.2843 7.64536 10.3085 7.67511 10.3292 7.70649C10.3365 7.71791 10.3437 7.72978 10.3505 7.74193C10.3551 7.74963 10.3592 7.75736 10.3631 7.76517C10.3706 7.78077 10.3778 7.79691 10.3842 7.81342C10.3877 7.82195 10.3907 7.83043 10.3936 7.83897C10.3986 7.8546 10.4032 7.87084 10.407 7.88735C10.4093 7.89631 10.4111 7.90507 10.4128 7.91385C10.4154 7.92905 10.4176 7.94487 10.4192 7.96088C10.4205 7.97215 10.4213 7.98318 10.4217 7.99422C10.4217 8.0015 10.4219 8.0089 10.4219 8.01633L10.4217 8.03769C10.4213 8.04923 10.4205 8.06076 10.4193 8.07227L10.4219 8.01633C10.4219 8.05146 10.4187 8.08585 10.4125 8.1192C10.4111 8.12763 10.4093 8.13642 10.4072 8.14517C10.403 8.16245 10.3982 8.17929 10.3927 8.19579C10.3902 8.20357 10.3874 8.21133 10.3845 8.21904C10.3781 8.23498 10.3712 8.25055 10.3637 8.26574C10.3599 8.27397 10.3555 8.28242 10.3508 8.29077C10.3422 8.30559 10.3333 8.31992 10.3238 8.33381C10.3198 8.34003 10.3156 8.34591 10.3113 8.35173C10.2928 8.3759 10.2756 8.39563 10.2571 8.41408L10.2565 8.41489L8.06055 10.6019C7.84043 10.8211 7.48427 10.8204 7.26506 10.6003C7.06577 10.4001 7.04825 10.0876 7.2121 9.86774L7.26669 9.80477L8.49664 8.57823L0.828644 8.57883C0.517984 8.57883 0.266144 8.32699 0.266144 8.01633C0.266144 7.73156 0.477759 7.49621 0.752316 7.45896L0.828644 7.45383L8.49664 7.45323L7.26669 6.22789C7.06658 6.0286 7.04778 5.71614 7.21072 5.4956L7.26506 5.4324C7.46434 5.23229 7.7768 5.21349 7.99735 5.37643Z" fill="#3E3E3E"/>
</svg>
